# xmcd
#
# Track frame offsets:
#	182
#	29315
#	44340
#	60375
#	71995
#	84532
#	96930
#	114732
#	128947
#	145285
#
# Disc length: 2184 seconds
#
# Revision: 12
# Processed by: cddbd v1.5.2PL0 Copyright (c) Steve Scherf et al.
# Submitted via: audiograbber 1.83.01
#
DISCID=9108860a
DTITLE=Wilco - Being There  [CD1)
DYEAR=1996
DGENRE=Retro
TTITLE0=Misunderstood
TTITLE1=Far, Far Away
TTITLE2=Monday
TTITLE3=Outtasite (Outta Mind)
TTITLE4=Forget The Flowers
TTITLE5=Red-Eyed And Blue
TTITLE6=I Got You (At The End Of The Century)
TTITLE7=What's The World Got In Store
TTITLE8=Hotel Arizona
TTITLE9=Say You Miss Me
EXTD=
EXTT0=
EXTT1=
EXTT2=
EXTT3=
EXTT4=
EXTT5=
EXTT6=
EXTT7=
EXTT8=
EXTT9=
PLAYORDER=
